<?xml version="1.0" standalone="no"?><!DOCTYPE svg PUBLIC "-//W3C//DTD SVG 1.1//EN" "http://www.w3.org/Graphics/SVG/1.1/DTD/svg11.dtd"><svg t="1748187926907" class="icon" viewBox="0 0 1450 1024" version="1.1" xmlns="http://www.w3.org/2000/svg" p-id="5012" xmlns:xlink="http://www.w3.org/1999/xlink" width="283.203125" height="200"><path d="M562.443589 514.671343c-40.164253-83.593503-112.33027-90.195517-112.330269-90.195517L436.933299 503.291871c2.400732-4.801465 4.801465-9.482893 7.610322-14.116306a5.161575 5.161575 0 0 1 1.128344-1.248381l-1.008308-0.552169a2.088637 2.088637 0 0 1 1.632498-3.817164c37.403411 11.043369 74.590756 30.801397 97.757824 63.06724 25.5678 35.578854 27.824489 78.623986 28.088569 120.972907 0.62419 101.02282-11.859618 212.320774-10.58723 315.720319 9.266827 0 16.132922-11.883625 16.132922-11.883626s-0.432132-89.187209 1.656505-156.527753 23.23909-216.6661-16.901156-300.235595z" fill="#F4A479" p-id="5013"></path><path d="M572.022512 667.597998c-0.264081-42.34892-2.520769-85.394052-28.08857-120.972907-23.167068-32.265844-60.354413-52.023871-97.757823-63.06724a2.088637 2.088637 0 0 0-1.632498 3.817164l1.008307 0.552169a5.161575 5.161575 0 0 0-1.128344 1.248381c-2.78485 4.633414-5.233597 9.362856-7.610322 14.116306l-3.264996 19.493948s109.233325 26.936218 122.653419 107.336746-10.803296 305.325148-9.314842 342.200397c5.065545 8.258519 10.059069 10.971347 14.548439 10.971348-1.272388-103.375538 11.21142-214.673492 10.58723-315.696312z" fill="#EB956A" p-id="5014"></path><path d="M679.239221 467.809046c0.648198-1.34441 1.248381-2.544776 1.920586-4.081245 9.458886-23.479163 6.169882-31.353565 6.169882-31.353565s-12.363772-2.736835-76.511342-27.320335c-42.997117-16.445017-70.437489-53.080194-85.32203-74.950866-4.801465 4.681428-9.818996 9.266827-14.836526 13.804212 11.451494 33.202129 54.016479 60.330405 54.016479 60.330405s-47.10237-5.713743-80.016411-3.168967a79.416228 79.416228 0 0 0-13.756197 2.400733 54.592655 54.592655 0 0 1-1.224373 11.043369c73.054287-13.156014 145.388355 21.774643 209.559932 53.296259z" fill="#C9293E" p-id="5015"></path><path d="M554.833267 433.046441c41.316605 15.556746 107.168695 54.760706 107.168695 54.760706s8.426571-0.744227 17.237259-19.998101c-64.171577-31.521617-136.505645-66.452273-209.559932-53.368281a87.002543 87.002543 0 0 1-2.400733 9.002746c19.710013-1.104337 58.121732-1.464447 87.554711 9.60293z" fill="#C01D39" p-id="5016"></path><path d="M653.191274 483.869946c-61.170662-3.192974-142.795564 11.019362-189.65786 47.798582 1.152352 2.664813 2.112645 5.401648 3.000915 8.138483 17.333288-9.194805 39.756129-18.989793 61.146655-22.062731 43.669323-6.265912 120.300701-3.625106 120.300701-3.625105s8.186498-5.137567 5.209589-30.249229z" fill="#2F61AD" p-id="5017"></path><path d="M452.874162 544.632483c3.625106-1.824557 7.5383-3.289003 11.331457-4.945508 45.613916-40.116239 125.390254-59.130039 188.985655-55.817029-3.000916-25.159676-9.60293-30.465294-9.602929-30.465294s-12.003662 3.529077-80.184463 12.91594c-45.613916 6.241904-87.314638-12.65186-110.865823-24.655522q-3.024923 9.60293-6.385948 19.20586c26.047947 23.5992 76.415313 26.864196 76.415313 26.864195s-44.029432 17.645383-71.637855 35.770913a81.360821 81.360821 0 0 0-10.971347 8.642637 62.130955 62.130955 0 0 1 6.505984 19.205859l4.801465-2.928893a3.120952 3.120952 0 0 1 1.608491-3.793158z" fill="#406CB4" p-id="5018"></path><path d="M547.775114 43.719666a148.341256 148.341256 0 0 0-46.862296-30.513309 4.177274 4.177274 0 0 1-0.768235 0c-97.685802-18.605676-193.78712 28.808789-263.336338 94.612864-66.092163 62.611101-122.581397 143.467769-166.250719 223.268115-100.830761 184.112169-42.396934 393.720115 41.388626 571.878467 3.192974 4.39334 6.385948 8.810688 9.60293 13.107999a362.36655 362.36655 0 0 0 36.659184 40.980502c40.260283 17.333288 90.123495 8.546607 136.553659-8.594622 71.901936-26.576108 130.71988-78.455935 146.756773-153.022684 8.138483-37.85955 8.546607-91.347868 2.808857-129.63955-8.378556-55.793021-48.254721-107.888915-51.039571-164.258111-1.392425-28.064562 27.584415-43.95741 40.260282-69.189108 18.869757-37.571462 49.887219-69.813299 71.32576-103.08745 30.849411-47.82259 57.617578-107.672849 71.757892-163.681936 9.530908-37.59547-10.707267-86.810484-28.856804-121.861177z" fill="#9A3E3C" p-id="5019"></path><path d="M70.557526 331.039321c43.669323-79.728323 100.158556-160.584991 166.250719-223.268114 69.62124-65.876097 165.650536-113.218541 263.336338-94.612865a4.177274 4.177274 0 0 0 0.768235 0 163.681936 163.681936 0 0 0-21.966702-7.346241C303.236511-38.841522 147.092875 185.07479 78.623986 292.315507-46.886304 488.959499-12.003662 731.433472 111.946152 902.917788c-83.785561-178.134345-142.243395-387.766299-41.388626-571.878467zM259.063034 1015.824234a175.469532 175.469532 0 0 0 76.823438 1.488454 219.402935 219.402935 0 0 0 74.422704-30.177207c-5.521685 3.192974-11.067376 6.337934-16.94917 9.098776-43.381235 20.262182-88.466989 21.966702-134.296972 19.589977zM453.738426 410.143454c6.145875-50.895527-41.508663-69.62124-47.750568-80.856668-9.843003 14.860534 25.663829 57.617578 15.676783 91.467905s-65.371944 59.202061-68.492896 75.791122c50.607439-5.905802 97.25367-58.385812 100.566681-86.402359zM364.167099 984.926808c72.550133-21.774643 116.891661-74.686785 133.480722-147.933132 14.548438-64.003526 5.305619-130.599843-15.268658-192.202636-10.659252-31.809704-16.637076-65.059848-32.265843-94.708894-7.466278-14.092299-18.005493-34.114408-32.505917-41.916788-5.857787-3.168967-47.246414-9.122783-54.760706-10.275135 40.164253 38.243667 62.419043 115.931368 70.557525 169.827811a320.185682 320.185682 0 0 1-2.616798 115.067105c-16.012885 74.590756-65.876097 135.593367-137.89807 162.193481a251.284661 251.284661 0 0 1-134.75311 12.003662 278.340916 278.340916 0 0 0 35.362788 28.808789 302.492284 302.492284 0 0 0 170.668067-0.864263zM564.340168 236.450464c17.093215-51.519718 16.805127-114.755009 12.147706-152.950662a142.723542 142.723542 0 0 0-28.808789-39.780136c18.149537 35.050693 20.598284 80.83266 11.067376 118.452137-14.140314 56.057102-21.750636 113.146519-93.628564 173.140822 1.512461 0.120037 3.000916 0.216066 4.513377 0.216065 18.005493-0.216066 71.541826-29.432979 94.708894-99.078226zM450.11332 357.087268c-1.368417 1.872571-2.640806 3.817165-4.009223 5.761757 13.348072 12.819911 27.152284 27.896511 27.008239 47.294429a83.305415 83.305415 0 0 0-3.385032-45.349835c22.086738 2.400732 43.597301-8.546607 61.554779-25.087654-18.341596 15.244651-32.649961 14.764504-35.314774 15.580753-10.083076 3.096945-32.193822 2.736835-45.853989 1.80055zM562.443589 300.117887c1.584483-2.760842 3.072937-5.47367 4.417348-8.210504-1.440439 3.000916-2.928894 5.809772-4.417348 8.210504z" fill="#91362E" p-id="5020"></path><path d="M399.361837 490.183872c60.498457 3.817165 88.683055 88.466989 104.912006 136.097521 18.461632 54.184531 28.808789 112.186226 23.431148 169.155605a392.279676 392.279676 0 0 0-3.31301-113.794716 524.247937 524.247937 0 0 0-27.080262-97.949882c-12.003662-31.953748-48.566817-62.563087-48.014648-97.853853 0.264081-18.74972 12.747889-38.411719 20.166152-61.362721-7.202197 12.003662-25.711844 36.491133-33.610254 44.125462-10.179105 9.746974-22.926995 16.372995-36.491132 21.582584z" fill="#91362E" p-id="5021"></path><path d="M472.224065 418.714069a39.708114 39.708114 0 0 0 0.888271-8.570615 116.051405 116.051405 0 0 1-3.697128 14.404394 25.471771 25.471771 0 0 0 2.808857-5.833779zM410.381198 987.135481c52.816113-30.393272 90.651656-80.424536 107.552812-139.410531a293.537552 293.537552 0 0 0 9.770981-52.287952 302.324233 302.324233 0 0 1-12.219728 55.913058 256.878368 256.878368 0 0 1-105.104065 135.785425zM531.282083 339.705965c9.60293-7.994439 20.382218-20.406225 31.209521-39.492048a169.683767 169.683767 0 0 1-31.209521 39.492048z" fill="#852D28" p-id="5022"></path><path d="M576.487874 83.499802c4.657421 38.195653 3.072937 100.542673-14.044285 152.038384-23.14306 69.62124-74.806822 99.774439-92.788307 99.990504-1.512461 0-3.000916 0-4.513377-0.216065-27.296328-2.06463-48.926927-24.487471-76.031196-22.350819-12.411787 0.9843 28.808789 30.345258 47.534502 63.979519 6.265912 11.139398 10.035061 22.782951 8.570615 34.018378-3.697128 27.99254-26.672137 45.853989-51.927842 60.306398-16.949171 9.60293-34.834627 17.76542-48.710861 26.408056-4.657421 2.880879-2.016615 9.194805 3.865179 9.194806 12.29175 0 28.400664-0.480146 42.901088 1.752534a65.419958 65.419958 0 0 1 20.526262 6.241905c14.404394 7.778373 23.527178 22.999016 30.945441 37.067308a625.126712 625.126712 0 0 1 39.56407 92.980366c20.574277 61.602794 29.817097 128.199111 15.268658 192.202637-16.589061 73.246346-60.930589 126.158488-133.480722 147.933131a302.492284 302.492284 0 0 1-170.596045 0.960293 201.94961 201.94961 0 0 0 65.49198 29.937133c45.613916 2.400732 90.915736 0.672205 134.441015-19.589976 5.881794-2.760842 11.427486-5.905802 16.949171-9.098776a256.878368 256.878368 0 0 0 105.104065-135.785425 302.324233 302.324233 0 0 0 12.219728-55.913058c5.425655-56.96938-4.969516-114.971075-23.431148-169.155606-16.228951-47.630531-44.41355-132.280356-104.912006-136.09752 13.564138-5.233597 26.408057-11.835611 36.395103-21.606592 7.946424-7.634329 26.528093-32.169814 33.610254-44.125461a116.051405 116.051405 0 0 0 3.697128-14.404395c0.144044-19.397918-13.660167-34.474517-27.00824-47.294428-2.544776-2.400732-5.11356-4.801465-7.514293-7.202198a60.330405 60.330405 0 0 0 11.523516 1.464447c13.660167 0.936286 35.770913 1.296396 45.853989-1.800549 2.664813-0.816249 16.973178-0.336103 35.314774-15.580753a169.683767 169.683767 0 0 0 31.209521-39.492049 162.049438 162.049438 0 0 0 4.417348-8.210504c1.800549-3.505069 3.433047-6.986131 4.801465-10.395172 25.543793-62.395035 33.658268-139.626597 4.75345-198.156453z" fill="#852D28" p-id="5023"></path><path d="M591.780539 131.322392c4.153267 37.547455-4.225289 82.081041-12.003662 119.700518-9.939032 48.566817-54.088501 115.811332-113.770709 98.742124-13.516123-3.865179-66.116171-30.273236-78.287884-36.395104-5.905802-2.976908-14.548438 1.368417-4.537384 7.754366 6.938117 4.39334 79.22417 47.654538 79.632294 79.632294 0.480146 32.673968-26.888203 63.619409-37.331389 70.989657-28.064562 19.782035-58.889966 25.111661-73.702485 28.664745-7.922417 1.896579-8.426571 6.81808 0.576176 6.602015 19.710013-0.408125 39.900173-7.682344 57.617578-13.876234 18.701705 2.400732 33.130107 17.189244 46.74226 40.812451 14.812519 25.783866 25.951917 60.570479 37.187345 88.394968 26.792174 66.308229 42.516971 143.27571 24.703536 213.977279-34.690583 138.402223-171.940455 207.42328-303.33254 162.097453-7.682344-2.640806-8.234512 0-0.864263 3.289003C366.639854 1070.752991 511.356004 971.650757 535.219284 811.185803c13.180021-88.250923-18.341596-187.041062-52.431996-267.225525-6.722051-15.796819-13.99627-29.432979-20.334204-41.26859-10.011054-18.653691-11.355464-37.907565 3.985216-53.872435 18.48564-19.205859 23.335119-43.981418 12.867926-74.422705 18.293581-0.312095 37.355396-5.161575 51.831813-17.213251 27.656437-22.926995 44.845681-63.06724 52.023871-84.889898 16.252958-49.455088 16.541046-92.884337 8.618629-140.971007z" fill="#781F1D" p-id="5024"></path><path d="M501.753074 110.964181c-1.440439-14.71649-21.870672-60.282391-73.894544-67.220508-56.273168-7.490285-102.415245 2.928894-162.481569 50.055271C234.959681 117.662224 170.836118 196.502277 227.829506 224.590846c14.404394 7.202197 31.089485 6.770065 46.334135 10.94734 21.126445 5.785765 37.739514 19.205859 56.753315 29.216913 28.232613 14.836526 58.241768 15.124614 87.530703 2.568784C482.547215 239.811489 508.259059 177.824578 501.753074 110.964181zM335.022208 336.128874c-33.874334-54.712692-182.93581-88.827099-236.208062-30.273236-18.413618 20.19016-33.010071 50.823505-34.690583 78.575972C62.419043 413.120362 82.201078 427.356705 105.872299 439.192316c58.6739 29.33695 130.431792 32.842019 191.290359 7.946424 53.704384-22.014716 70.509511-58.193754 37.85955-111.009866zM356.220675 608.035826c-33.610254-75.310976-108.585127-75.310976-190.498117-52.095893-63.619409 18.0295-101.74304 69.62124-92.7643 134.441015 5.785765 41.916788 21.79865 83.785561 39.636092 121.47706 14.812519 31.209521 33.610254 62.731138 63.355328 81.768946 59.346105 37.931572 136.45763 5.545692 172.636668-48.998948 22.566885-34.018378 29.889119-74.134617 29.048862-114.442915-0.72022-39.540063-5.137567-85.490081-21.414533-122.149265z" fill="#A24847" p-id="5025"></path><path d="M398.209485 61.485086a141.643212 141.643212 0 0 0-63.235292 3.697128h-0.552168c-31.209521 9.482893-54.664677 28.25662-78.527957 50.41538-14.404394 13.396087-35.506832 49.167-24.007324 61.434743 14.260351 15.124614 26.143976 18.053508 44.893696 19.37391 59.106032 4.201282 114.130819-39.996202 146.444677-85.826183 23.527178-33.1061 3.000916-44.605608-25.015632-49.094978zM209.439896 301.270239c-6.770065-8.810688-30.68136-19.73402-70.269438 3.433047-43.813366 25.687837-67.508595 88.082872-23.263097 113.338577 36.611169 20.910379 75.599064-15.052592 87.65074-48.44678 6.986131-19.301889 19.710013-50.487403 5.881795-68.324844zM210.976364 620.591657c-8.546607-21.43854-28.016547-36.851243-51.879827-33.73029-30.153199 3.937201-53.272252 29.096877-61.506764 55.648977-5.305619 17.189244-5.017531 55.408904 0.672205 77.999796 5.377641 21.462548 47.846597 141.643212 83.497473 99.534366 8.498593-10.059069 10.347157-26.408057 13.180021-38.411719q7.010139-29.384965 12.339764-59.154047c5.641721-31.809704 16.108914-70.725577 3.697128-101.887083z" fill="#B35959" opacity=".5" p-id="5026"></path><path d="M392.351698 67.246844c-47.270421-2.400732-105.824285 21.414533-132.4244 60.906581-2.78485 4.153267-0.816249 6.626021 3.841172 3.120952 39.708114-29.793089 86.426367-46.934319 135.569359-52.816113 5.521685-0.600183 11.427486-10.275135-6.986131-11.21142zM169.491708 301.342261c-7.946424-0.192059-20.790343 6.553999-27.99254 12.003662-21.606592 15.988878-34.81062 36.491133-38.411718 63.499372-1.560476 11.66756 2.880879 6.073853 4.297311 2.016615 10.899325-31.737682 42.396934-50.031263 65.419958-69.405174 3.264996-2.856872 0.456139-7.970432-3.313011-8.114475zM145.940523 606.763438c0.408125-0.576176-0.384117-1.416432-0.9843-1.008307-36.371096 26.672137-44.797667 82.585195-27.320335 119.41243 3.937201 8.234512 5.377641 1.560476 4.657421-2.664813-7.202197-42.613-2.256688-78.263877 23.647214-115.73931zM140.418839 759.594064c-5.617714-13.204028-10.923332-10.131091-10.923333-3.625106 0 7.682344 3.649113 24.007324 11.715574 24.415448 4.825472 0.264081 1.488454-15.388695-0.792241-20.790342z" fill="#D78283" p-id="5027"></path><path d="M888.102941 514.671343c40.164253-83.593503 112.378284-90.195517 112.378284-90.195517l13.252043 78.816045c-2.400732-4.801465-4.801465-9.482893-7.610322-14.116306a4.345326 4.345326 0 0 0-1.128344-1.248381l1.032315-0.552169a2.088637 2.088637 0 0 0-1.608491-3.817164c-37.451426 11.043369-74.614763 30.801397-97.781831 63.06724C881.068795 582.203946 878.812106 625.249078 878.668062 667.597998c-0.648198 101.02282 11.835611 212.320774 10.58723 315.720319-9.266827 0-16.156929-11.883625-16.156929-11.883626s0.432132-89.187209-1.632498-156.527753-23.527178-216.6661 16.637076-300.235595z" fill="#F4A479" p-id="5028"></path><path d="M878.668062 667.597998c0.264081-42.34892 2.520769-85.394052 28.08857-120.972907 23.167068-32.265844 60.330405-52.023871 97.781831-63.06724a2.088637 2.088637 0 0 1 1.60849 3.817164l-1.032315 0.552169a4.345326 4.345326 0 0 1 1.128345 1.248381c2.808857 4.633414 5.257604 9.362856 7.610321 14.116306l3.289004 19.493948s-109.233325 26.936218-122.653419 107.336746S905.076119 935.447713 903.683694 972.322962c-5.089553 8.258519-10.083076 10.971347-14.548438 10.971348 1.248381-103.375538-11.235428-214.673492-10.467194-315.696312z" fill="#EB956A" p-id="5029"></path><path d="M771.283302 467.809046c-0.600183-1.34441-1.224374-2.544776-1.824557-4.081245-9.60293-23.479163-6.217897-31.353565-6.217897-31.353565s12.339765-2.736835 76.511342-27.320335c42.97311-16.445017 70.413482-53.080194 85.298023-74.950866 4.801465 4.681428 9.818996 9.266827 14.836526 13.804212-11.427486 33.202129-54.016479 60.330405-54.016479 60.330405s47.10237-5.713743 80.016411-3.168967a80.232477 80.232477 0 0 1 13.756197 2.400733 51.375674 51.375674 0 0 0 1.224373 11.043369c-73.03028-13.156014-145.412362 21.774643-209.583939 53.296259z" fill="#C9293E" p-id="5030"></path><path d="M895.713263 433.046441c-41.316605 15.556746-107.168695 54.760706-107.168695 54.760706s-8.402563-0.744227-17.261266-19.998101c64.171577-31.521617 136.55366-66.452273 209.607946-53.368281a76.367298 76.367298 0 0 0 2.400733 9.002746c-19.73402-1.104337-58.121732-1.464447-87.578718 9.60293z" fill="#C01D39" p-id="5031"></path><path d="M797.355256 483.869946c61.146655-3.192974 142.795564 11.019362 189.65786 47.798582a84.649825 84.649825 0 0 0-2.952901 8.138483c-17.381303-9.194805-39.780136-18.989793-61.146654-22.062731-43.717337-6.265912-120.324708-3.625106-120.324709-3.625105s-8.186498-5.137567-5.233596-30.249229z" fill="#2F61AD" p-id="5032"></path><path d="M997.720383 544.632483c-3.673121-1.824557-7.562307-3.289003-11.355465-4.945508-45.613916-40.116239-125.414261-59.130039-189.009662-55.817029 3.000916-25.159676 9.60293-30.465294 9.602929-30.465294s12.147706 3.529077 80.20847 12.91594c45.613916 6.241904 87.29063-12.65186 110.841816-24.655522q3.024923 9.60293 6.409955 19.20586c-26.047947 23.5992-76.391305 26.864196-76.391305 26.864195s44.005425 17.645383 71.613848 35.770913a79.536265 79.536265 0 0 1 10.947339 8.642637 62.08294 62.08294 0 0 0-6.481977 19.205859l-4.801465-2.928893a3.096945 3.096945 0 0 0-1.584483-3.793158z" fill="#406CB4" p-id="5033"></path><path d="M902.675387 43.719666a149.013461 149.013461 0 0 1 46.982333-30.513309 4.225289 4.225289 0 0 0 0.792241 0c97.661794-18.605676 193.739106 28.808789 263.288324 94.612864 66.116171 62.611101 122.605404 143.467769 166.274727 223.268115 100.830761 184.112169 42.372927 393.720115-41.388627 571.878467-3.192974 4.39334-6.385948 8.810688-9.60293 13.107999a357.709129 357.709129 0 0 1-36.587162 41.028517c-40.260283 17.333288-90.123495 8.546607-136.529652-8.594622-71.997965-26.600115-130.791902-78.50395-146.852801-153.070699-8.16249-37.85955-8.546607-91.347868-2.832865-129.63955 8.378556-55.793021 48.278729-107.888915 51.063579-164.258111 1.392425-28.064562-27.584415-43.95741-40.260283-69.189108-18.869757-37.571462-49.911227-69.813299-71.349767-103.08745A578.240408 578.240408 0 0 1 873.866598 165.676872c-9.482893-37.691499 10.779289-86.906513 28.808789-121.957206z" fill="#9A3E3C" p-id="5034"></path><path d="M1380.013012 331.039321c-43.669323-79.728323-100.158556-160.584991-166.274727-223.268114-69.62124-65.876097-165.650536-113.218541-263.288324-94.612865a4.225289 4.225289 0 0 1-0.792241 0 163.681936 163.681936 0 0 1 21.966701-7.346241C1147.310019-38.841522 1303.597699 185.07479 1371.922544 292.315507c125.534298 196.643992 90.651656 439.117965-33.298159 610.602281 83.761554-178.134345 142.219388-387.766299 41.388627-571.878467zM1191.53151 1015.824234a175.589569 175.589569 0 0 1-76.823437 1.488454 219.522972 219.522972 0 0 1-74.422705-30.177207c5.521685 3.192974 11.091384 6.337934 16.949171 9.098776 43.357227 20.262182 88.539011 21.966702 134.296971 19.589977zM996.76009 410.143454c-6.145875-50.895527 41.532671-69.62124 47.798582-80.856668 9.794988 14.860534-25.687837 57.617578-15.70079 91.467905s65.395951 59.202061 68.492896 75.791122c-50.631447-5.905802-97.205655-58.385812-100.590688-86.402359zM1086.379431 984.926808c-72.550133-21.774643-116.867654-74.686785-133.480722-147.933132-14.524431-64.003526-5.281611-130.599843 15.292665-192.202636 10.635245-31.809704 16.589061-65.059848 32.289851-94.708894 7.418263-14.092299 17.957478-34.114408 32.457902-41.916788 5.857787-3.168967 47.246414-9.122783 54.784714-10.275135-40.188261 38.243667-62.419043 115.931368-70.581533 169.827811a321.266011 321.266011 0 0 0 2.616798 115.067105c16.036893 74.590756 65.924112 135.593367 137.850055 162.193481a251.188632 251.188632 0 0 0 134.729103 12.003662 275.027905 275.027905 0 0 1-35.362788 28.808789 302.492284 302.492284 0 0 1-170.596045-0.864263zM886.254377 236.450464c-17.117222-51.519718-16.805127-114.755009-12.171713-152.950662A142.171373 142.171373 0 0 1 902.675387 43.719666c-18.12553 35.050693-20.574277 80.83266-11.067377 118.452137 14.188329 56.057102 21.774643 113.146519 93.628564 173.140822-1.512461 0.120037-2.976908 0.216066-4.489369 0.216065-17.813434-0.216066-71.373775-29.432979-94.492828-99.078226zM1000.481225 357.087268c1.320403 1.872571 2.640806 3.817165 3.961208 5.761757-13.324065 12.819911-27.152284 27.896511-27.008239 47.294429a83.569495 83.569495 0 0 1 3.40904-45.349835c-22.110746 2.400732-43.573293-8.546607-61.578787-25.087654 18.365603 15.244651 32.673968 14.764504 35.338782 15.580753 10.083076 3.096945 32.097792 2.736835 45.877996 1.80055zM888.102941 300.117887a161.977416 161.977416 0 0 1-4.417348-8.210504c1.464447 3.000916 2.928894 5.809772 4.417348 8.210504z" fill="#91362E" p-id="5035"></path><path d="M1051.184693 490.183872c-60.474449 3.817165-88.659048 88.466989-104.912006 136.097521-18.437625 54.184531-28.808789 112.186226-23.383134 169.155605a390.599163 390.599163 0 0 1 3.289004-113.794716 524.175915 524.175915 0 0 1 27.056254-97.949882c12.003662-31.953748 48.566817-62.563087 48.014648-97.853853-0.288088-18.74972-12.771896-38.411719-20.190159-61.362721 7.202197 12.003662 25.711844 36.491133 33.610253 44.125462 10.203113 9.746974 22.951002 16.372995 36.51514 21.582584z" fill="#91362E" p-id="5036"></path><path d="M978.322465 418.714069a42.97311 42.97311 0 0 1-0.888271-8.570615 120.49276 120.49276 0 0 0 3.697128 14.404394 25.471771 25.471771 0 0 1-2.808857-5.833779zM1040.165332 987.135481c-52.816113-30.393272-90.651656-80.424536-107.552812-139.410531a289.216234 289.216234 0 0 1-9.722967-52.287952 300.259603 300.259603 0 0 0 12.171714 55.913058 256.878368 256.878368 0 0 0 105.104065 135.785425zM919.264447 339.705965c-9.60293-7.994439-20.358211-20.406225-31.209521-39.492048a169.683767 169.683767 0 0 0 31.209521 39.492048z" fill="#852D28" p-id="5037"></path><path d="M874.082664 83.499802c-4.657421 38.195653-3.096945 100.542673 14.020277 152.038384 23.14306 69.62124 74.830829 99.774439 92.812315 99.990504 1.512461 0 2.976908 0 4.489369-0.216065 27.296328-2.06463 48.950934-24.487471 76.07921-22.350819 12.363772 0.9843-28.808789 30.345258-47.558509 63.979519-6.241904 11.139398-10.035061 22.782951-8.570614 34.018378 3.697128 27.99254 26.672137 45.853989 51.927842 60.306398 16.925163 9.60293 34.834627 17.76542 48.71086 26.408056 4.657421 2.880879 2.040623 9.194805-3.889186 9.194806-12.29175 0-28.400664-0.480146-42.901088 1.752534a65.083856 65.083856 0 0 0-20.502255 6.241905c-14.404394 7.778373-23.551185 22.999016-30.969448 37.067308a622.485907 622.485907 0 0 0-39.540063 92.980366c-20.574277 61.602794-29.817097 128.199111-15.292665 192.202637 16.613068 73.246346 60.930589 126.158488 133.480722 147.933131a302.492284 302.492284 0 0 0 170.596045 0.960293 201.925603 201.925603 0 0 1-65.443966 29.937133c-45.75796 2.400732-90.939744 0.672205-134.441015-19.589976-5.857787-2.760842-11.427486-5.905802-16.949171-9.098776a256.878368 256.878368 0 0 1-105.104065-135.785425 300.259603 300.259603 0 0 1-12.171713-55.913058c-5.449663-56.96938 4.945509-114.971075 23.383134-169.155606 16.252958-47.630531 44.437557-132.280356 104.912006-136.09752-13.564138-5.233597-26.408057-11.835611-36.395103-21.606592-7.946424-7.634329-26.408057-32.169814-33.610254-44.125461a120.49276 120.49276 0 0 1-3.697128-14.404395c-0.144044-19.397918 13.684175-34.474517 27.00824-47.294428 2.592791-2.400732 5.137567-4.801465 7.5383-7.202198a60.618493 60.618493 0 0 1-11.499509 1.464447c-13.684175 0.936286-35.79492 1.296396-45.877996-1.800549-2.664813-0.816249-16.973178-0.336103-35.338781-15.580753a169.683767 169.683767 0 0 1-31.209522-39.492049c-1.488454-2.616798-2.952901-5.305619-4.417347-8.210504-1.776542-3.505069-3.40904-6.986131-4.801465-10.395172-25.5678-62.395035-33.682276-139.626597-4.777457-198.156453z" fill="#852D28" p-id="5038"></path><path d="M858.789998 131.322392c-4.153267 37.547455 4.201282 82.081041 12.003662 119.700518 9.939032 48.566817 54.064494 115.811332 113.770709 98.742124 13.492116-3.865179 66.092163-30.273236 78.263877-36.395104 5.929809-2.976908 14.596453 1.368417 4.585399 7.754366-6.986131 4.39334-79.22417 47.654538-79.656302 79.632294-0.480146 32.673968 26.864196 63.619409 37.307382 70.989657 28.088569 19.782035 58.913973 25.111661 73.726492 28.664745 7.89841 1.896579 8.426571 6.81808-0.576176 6.602015-19.73402-0.408125-39.92418-7.682344-57.617577-13.876234-18.725713 2.400732-33.178122 17.189244-46.766268 40.812451-14.812519 25.783866-25.951917 60.570479-37.211352 88.394968-26.768166 66.308229-42.492964 143.27571-24.679529 213.977279 34.858635 138.450238 172.108507 207.399273 303.476584 162.073445 7.706351-2.640806 8.234512 0 0.888271 3.289004-152.398493 69.069071-296.970599-30.033162-320.953916-190.498117-13.180021-88.250923 18.317588-187.041062 52.431995-267.225525 6.722051-15.796819 13.972263-29.432979 20.334204-41.26859 10.011054-18.653691 11.355464-37.907565-3.985216-53.872435-18.48564-19.205859-23.335119-43.981418-12.867926-74.422705-18.317588-0.312095-37.355396-5.161575-51.85582-17.213251-27.63243-22.926995-44.821674-63.06724-51.999864-84.889898-16.252958-49.455088-16.541046-92.884337-8.618629-140.971007z" fill="#781F1D" p-id="5039"></path><path d="M948.793456 110.964181c1.416432-14.71649 21.846665-60.282391 73.894544-67.220508 56.273168-7.490285 102.391237 2.928894 162.481569 50.055271 30.41728 23.839273 94.56485 102.72734 37.571463 130.815909-14.404394 7.202197-31.209521 6.770065-46.358143 10.94734-21.126445 5.785765-37.715506 19.205859-56.753315 29.216913-28.208606 14.836526-58.217761 15.124614-87.530703 2.568784-64.099555-27.536401-89.811399-89.523312-83.305415-156.383709zM1115.548329 336.128874c33.874334-54.712692 182.959817-88.827099 236.208062-30.273236 18.365603 20.19016 33.010071 50.823505 34.690584 78.575972 1.752535 28.688752-18.077515 42.901088-41.748737 54.760706-58.6739 29.33695-130.431792 32.842019-191.290358 7.946424-53.704384-22.014716-70.533518-58.193754-37.859551-111.009866zM1094.37387 608.035826c33.46621-75.310976 108.537112-75.310976 190.474109-52.095893 63.643416 18.0295 101.719032 69.62124 92.7643 134.441015-5.809772 41.916788-21.79865 83.785561-39.660099 121.47706-14.812519 31.209521-33.610254 62.731138-63.331321 81.768946-59.370113 37.931572-136.45763 5.545692-172.636668-48.998948-22.566885-34.018378-29.889119-74.134617-29.048862-114.442915 0.792242-39.540063 5.11356-85.490081 21.438541-122.149265z" fill="#A24847" p-id="5040"></path><path d="M1052.361052 61.485086a141.475161 141.475161 0 0 1 63.211285 3.697128h0.552168c31.209521 9.482893 54.664677 28.25662 78.551965 50.41538 14.524431 13.396087 35.506832 49.167 24.007324 61.434743-14.260351 15.124614-26.143976 18.053508-44.893696 19.37391-59.106032 4.201282-114.130819-39.996202-146.444677-85.826183-23.551185-33.1061-3.000916-44.605608 25.015631-49.094978zM1241.178656 301.270239c6.770065-8.810688 30.68136-19.73402 70.269438 3.433047 43.789359 25.687837 67.508595 88.082872 23.287105 113.338577-36.635177 20.910379-75.623071-15.052592-87.698755-48.44678-7.034146-19.301889-19.710013-50.487403-5.857788-68.324844zM1239.594173 620.591657c8.546607-21.43854 28.016547-36.851243 51.85582-33.73029 30.153199 3.937201 53.272252 29.096877 61.530772 55.648977 5.329626 17.189244 4.993523 55.408904-0.648198 77.999796-5.425655 21.462548-47.870604 141.643212-83.52148 99.534366-8.498593-10.059069-10.323149-26.408057-13.204029-38.411719q-7.034146-29.384965-12.315757-59.154047c-5.665728-31.809704-16.108914-70.725577-3.697128-101.887083z" fill="#B35959" opacity=".5" p-id="5041"></path><path d="M1058.194832 67.246844c47.270421-2.400732 105.824285 21.414533 132.4244 60.906581 2.832864 4.153267 0.864264 6.626021-3.817165 3.120952-39.708114-29.793089-86.426367-46.934319-135.569359-52.816113-5.521685-0.600183-11.451494-10.275135 6.962124-11.21142zM1281.078829 301.342261c7.946424-0.192059 20.766335 6.553999 27.99254 12.003662 21.606592 15.988878 34.834627 36.491133 38.411719 63.499372 1.560476 11.66756-2.880879 6.073853-4.273304 2.016615-10.923332-31.737682-42.444949-50.031263-65.443966-69.405174-3.264996-2.856872-0.576176-7.970432 3.313011-8.114475zM1304.606007 606.763438c-0.408125-0.576176 0.408125-1.416432 0.9843-1.008307 36.395103 26.672137 44.797667 82.585195 27.200298 119.41243-3.913194 8.234512-5.305619 1.560476-4.585399-2.664813 7.250212-42.613 2.232681-78.263877-23.599199-115.73931zM1310.175706 759.594064c5.593707-13.204028 10.899325-10.131091 10.899325-3.625106 0 7.682344-3.649113 24.007324-11.715574 24.415448-4.873487 0.264081-1.488454-15.388695 0.816249-20.790342z" fill="#D78283" p-id="5042"></path></svg>