<?xml version="1.0" standalone="no"?><!DOCTYPE svg PUBLIC "-//W3C//DTD SVG 1.1//EN" "http://www.w3.org/Graphics/SVG/1.1/DTD/svg11.dtd"><svg t="1748187815497" class="icon" viewBox="0 0 1024 1024" version="1.1" xmlns="http://www.w3.org/2000/svg" p-id="3158" xmlns:xlink="http://www.w3.org/1999/xlink" width="200" height="200"><path d="M283.175385 194.166154C185.895385 219.766154 121.304615 296.172308 118.153846 282.781538a236.307692 236.307692 0 0 1 150.843077-142.966153c96.886154-25.206154 200.467692 39.384615 202.043077 52.775384s-90.584615-23.630769-187.864615 1.575385z m344.615384 408.024615a3.544615 3.544615 0 0 0-2.756923 0 302.473846 302.473846 0 0 1-67.347692-74.436923l-2.363077-7.089231a350.523077 350.523077 0 0 1-15.753846-105.156923 263.483077 263.483077 0 0 1 7.876923-52.775384 324.529231 324.529231 0 0 0 9.058461-62.621539C556.504615 161.870769 433.230769 78.769231 319.409231 78.769231 191.015385 78.769231 100.430769 175.655385 70.498462 342.252308a1188.627692 1188.627692 0 0 0 0 317.44 616.763077 616.763077 0 0 1-6.695385 236.307692 39.384615 39.384615 0 0 0 5.513846 39.384615 16.541538 16.541538 0 0 0 14.178462 8.664616c22.055385 0 78.769231-28.750769 244.972307-168.172308a233.550769 233.550769 0 0 1 50.412308-27.569231 244.972308 244.972308 0 0 0 74.043077-45.686154 346.190769 346.190769 0 0 0 89.403077-129.181538 236.307692 236.307692 0 0 0 65.772308 69.710769 9.058462 9.058462 0 0 0 6.695384 0c10.24 0 18.116923-6.695385 19.298462-20.48a24.812308 24.812308 0 0 0-6.301539-20.48z m10.24-139.421538l23.236923-22.055385a247.335385 247.335385 0 0 1-23.236923 22.055385z m315.076923-270.178462c-33.870769-52.775385-139.815385-59.470769-183.926154-59.470769-55.926154 0-182.744615-11.815385-183.926153-11.815385L547.446154 118.153846l22.055384 42.535385A469.464615 469.464615 0 0 1 599.433846 236.307692a204.8 204.8 0 0 1 9.058462 57.895385 161.083077 161.083077 0 0 1-2.756923 23.630769c0 9.058462-3.150769 18.116923-3.938462 27.175385-6.301538 64.590769-9.058462 146.116923 14.178462 168.172307a31.113846 31.113846 0 0 0 15.753846 7.089231 25.993846 25.993846 0 0 0 14.178461-5.12 775.876923 775.876923 0 0 0 102.4-106.732307 373.366154 373.366154 0 0 1 78.769231-78.769231c18.116923-8.270769 33.870769-13.390769 48.049231-20.48 59.864615-25.206154 84.283077-35.446154 89.403077-62.621539a89.403077 89.403077 0 0 0-10.24-53.956923z" fill="#d4237a" p-id="3159"></path></svg>