<?xml version="1.0" standalone="no"?><!DOCTYPE svg PUBLIC "-//W3C//DTD SVG 1.1//EN" "http://www.w3.org/Graphics/SVG/1.1/DTD/svg11.dtd"><svg t="1748187970426" class="icon" viewBox="0 0 1125 1024" version="1.1" xmlns="http://www.w3.org/2000/svg" p-id="3091" xmlns:xlink="http://www.w3.org/1999/xlink" width="219.7265625" height="200"><path d="M32.620869 910.951817a27.55901 27.55901 0 0 1-26.996581-21.372293 224.971508 224.971508 0 0 1 102.362036-237.344941c88.301317-56.242877 183.351779-48.368874 275.590097-40.494871a126.546473 126.546473 0 0 0 32.05844 0 195.162783 195.162783 0 0 0 142.294478-88.301317 60.742307 60.742307 0 0 0-15.185576-63.554451l-5.061859-6.186716a73.11574 73.11574 0 0 1-22.497151-52.305876 69.178739 69.178739 0 0 1 7.311574-23.622008h-19.685007c-147.356338 0-224.971508-162.541914-250.280802-303.711536A27.55901 27.55901 0 0 1 275.590097 41.999368a28.121438 28.121438 0 0 1 32.620869 23.05958c3.937001 26.434152 46.681588 256.467519 194.600354 256.467519h12.373433a71.428454 71.428454 0 0 1 56.242877 21.934722 47.244017 47.244017 0 0 1 7.311574 43.869444 74.803026 74.803026 0 0 1-5.624288 13.49829v6.186717l8.99886 10.686146 6.749146 7.874003a115.297898 115.297898 0 0 1 23.059579 119.234899c-29.246296 73.678169-129.921046 112.485754-186.163922 122.047043a213.160504 213.160504 0 0 1-45.556731 0c-86.614031-7.311574-168.728631-14.623148-239.594656 31.496011a172.103203 172.103203 0 0 0-78.740027 176.602634 28.683867 28.683867 0 0 1-20.809865 34.308155z" fill="#d4237a" p-id="3092"></path><path d="M194.037925 1024h-7.311574a28.683867 28.683867 0 0 1-17.99772-35.433012 150.168481 150.168481 0 0 0 0-47.806446 220.472078 220.472078 0 0 1 0-60.742307A123.171901 123.171901 0 0 1 242.969228 788.342346a153.543054 153.543054 0 0 1 56.242877-8.998861A415.634861 415.634861 0 0 1 499.436747 844.585223l34.870584 17.99772a334.082689 334.082689 0 0 0 287.401101 5.624288 416.759718 416.759718 0 0 0 232.283082-269.96581 463.441306 463.441306 0 0 0-72.553311-383.57642 325.083829 325.083829 0 0 0-208.098645-136.107763 197.412498 197.412498 0 0 0-154.667911 39.932443 285.713815 285.713815 0 0 0-24.184438 21.372293 168.728631 168.728631 0 0 1-84.926744 50.61859 120.922185 120.922185 0 0 1-112.485754-52.868305 301.46182 301.46182 0 0 1-39.932442-101.237178 28.121438 28.121438 0 1 1 56.242877-14.623148 242.4068 242.4068 0 0 0 30.933582 82.1146 67.491452 67.491452 0 0 0 56.242877 30.933582 118.110042 118.110042 0 0 0 56.242877-35.995441c9.561289-8.436432 18.560149-17.435292 28.683867-24.746866A251.40566 251.40566 0 0 1 781.77599 25.126505a384.701278 384.701278 0 0 1 245.781372 159.729771 517.996897 517.996897 0 0 1 80.427314 430.258009 469.065594 469.065594 0 0 1-264.341522 306.523679 393.700139 393.700139 0 0 1-337.457261-6.749145l-35.433013-18.56015a361.641699 361.641699 0 0 0-172.665632-56.242877 92.800747 92.800747 0 0 0-37.120299 5.061859 68.053881 68.053881 0 0 0-40.494871 47.806446 177.727491 177.727491 0 0 0 0 45.55673 204.724072 204.724072 0 0 1 0 66.366595 28.121438 28.121438 0 0 1-26.434153 19.122578z" fill="#d4237a" p-id="3093"></path><path d="M907.760034 334.462329a28.121438 28.121438 0 0 1-27.55901-24.746866 112.485754 112.485754 0 0 0-112.485754-89.988603 28.121438 28.121438 0 1 1-5.061858-56.242877 164.791629 164.791629 0 0 1 173.228061 138.919906 28.121438 28.121438 0 0 1-24.184438 31.496011zM1004.497782 517.814107a43.869444 43.869444 0 0 0-32.620868-10.686146c-66.929024 2.812144-136.107762 4.49943-203.599215 3.374572L748.030264 507.127961a160.854628 160.854628 0 0 0-69.178739 5.061859 96.737748 96.737748 0 0 0-48.368874 51.743447 116.422755 116.422755 0 0 1-8.436432 14.060719A311.02311 311.02311 0 0 1 506.185893 675.856592a78.177599 78.177599 0 0 0-43.307016 56.242877A109.111181 109.111181 0 0 0 506.185893 820.963214a206.973787 206.973787 0 0 0 125.421615 44.994302h21.934722a383.013992 383.013992 0 0 0 309.898252-155.792769 251.968089 251.968089 0 0 0 51.181018-164.79163 41.619729 41.619729 0 0 0-10.123718-27.55901z m-368.390844 291.900532a149.043624 149.043624 0 0 1-89.426174-29.808725c-26.996581-25.871723-26.996581-38.245156-26.996581-40.494871s6.186716-10.123718 15.748006-15.185577a366.703558 366.703558 0 0 0 133.858047-112.485754 199.099784 199.099784 0 0 0 10.686146-18.560149c7.311574-14.060719 12.373433-23.05958 19.685007-25.871724a125.984044 125.984044 0 0 1 44.431873 0h23.622008c64.11688 0 128.796188 0 192.913068-2.812144a206.973787 206.973787 0 0 1-41.0573 112.485754 329.583259 329.583259 0 0 1-283.4641 132.73319z" fill="#d4237a" p-id="3094"></path><path d="M744.093262 563.370838a125.984044 125.984044 0 0 0-44.431873 0c-7.311574 0-12.373433 11.811004-19.685007 25.871723a199.099784 199.099784 0 0 1-10.686146 18.56015 366.703558 366.703558 0 0 1-133.858047 112.485753c-9.561289 5.061859-15.185577 10.686147-15.748006 15.185577s0 14.623148 26.996581 40.494872a149.043624 149.043624 0 0 0 89.426174 29.808724 329.583259 329.583259 0 0 0 281.214385-131.608332 206.973787 206.973787 0 0 0 41.0573-112.485754c-64.11688 2.812144-128.796188 3.937001-192.913068 2.812144z" fill="#d4237a" p-id="3095"></path></svg>